<svg xmlns="http://www.w3.org/2000/svg" viewBox="0 0 1098.49 213.76"><defs><style>.cls-1{font-size:174px;font-family:Montserrat-Bold, Montserrat;font-weight:700;}.cls-1,.cls-4{fill:#0278ae;}.cls-2{letter-spacing:-0.01em;}.cls-3{letter-spacing:-0.02em;}.cls-5{fill:#a5ecd7;}.cls-6{fill:#51adcf;}</style></defs><title>nirogcoAsset 2</title><g id="Layer_2" data-name="Layer 2"><g id="Layer_1-2" data-name="Layer 1"><text class="cls-1" transform="translate(344.9 167.47)">ni<tspan class="cls-2" x="172.61" y="0">r</tspan><tspan x="246.04" y="0">og</tspan><tspan class="cls-3" x="481.81" y="0">C</tspan><tspan x="606.73" y="0">O</tspan></text></g><g id="Layer_2-2" data-name="Layer 2"><path class="cls-4" d="M276.36,125.54a44,44,0,0,0,32.44-14.23l.05-.06.08,0a.5.5,0,0,0,.16,0L361.3,49a1.54,1.54,0,0,0,0-.19l0-.25a118.62,118.62,0,0,0-59.14-3,113,113,0,0,0-14,3.78,117.55,117.55,0,0,0-32.12,16.73V120.6A43.86,43.86,0,0,0,276.36,125.54Z"/><path class="cls-4" d="M56.1,93.94l-.43.49-5.78,6.93h0L0,160.76a117.81,117.81,0,0,0,35.81,5.53A119.41,119.41,0,0,0,63,163.16a118.44,118.44,0,0,0,56.31-31.43H61.42V89.58a45.08,45.08,0,0,0-5.32,4.35Z"/><path class="cls-5" d="M187.74,154.19,105.9,85.5l-.06,0a44.33,44.33,0,0,0-19.23-4.34,44.89,44.89,0,0,0-20.14,4.79c-1.27.65-2.5,1.38-3.7,2.14-.33.2-.64.41-1,.62l-.39.28v42.77h62.91v62.91h68.83V157.43C191.26,156.41,189.43,155.32,187.74,154.19Z"/><path class="cls-5" d="M135,40.77a73.9,73.9,0,0,1,19.09,2.49,75.81,75.81,0,0,1,14.5,5.59l.21.11.62.34,83.72,70.24c1,.59,2,1.14,3,1.65V62.91h-62.9V0H124.33V41.56A73.7,73.7,0,0,1,135,40.77Z"/><path class="cls-6" d="M169.38,49.3l-.62-.34-.21-.11a75.81,75.81,0,0,0-14.5-5.59A73.87,73.87,0,0,0,82.33,62.91c-.51.52-1,1-1.53,1.56l-.16.21-4.35,5.18h0L61.42,87.59l-3,3.57c.12-.1.26-.19.39-.29.84-.67,1.71-1.3,2.6-1.91l.39-.28c.32-.21.63-.42,1-.62,1.2-.76,2.43-1.49,3.7-2.14a44.89,44.89,0,0,1,20.14-4.79,44.33,44.33,0,0,1,19.23,4.34l.06,0,81.84,68.69c1.69,1.13,3.52,2.22,5.42,3.24l1.46.78a73.81,73.81,0,0,0,87.17-15L282,143l.22.21,24-28.59c-.84.75-1.71,1.45-2.59,2.14l-.78.57c-.71.53-1.44,1-2.18,1.51l-.87.56c-1,.62-2,1.21-3.06,1.75a44.66,44.66,0,0,1-40.64,0c-1-.51-2-1.06-3-1.65Z"/></g></g></svg>