<svg xmlns="http://www.w3.org/2000/svg" viewBox="0 0 1091.7 202.62"><defs><style>.cls-1{fill:#0278ae;}.cls-2{fill:#a5ecd7;}.cls-3{fill:#51adcf;}</style></defs><g id="Layer_2" data-name="Layer 2"><g id="Layer_1-2" data-name="Layer 1"><path class="cls-1" d="M453.12,113.88v53.59H426V118.06c0-15.14-7-22.1-19-22.1-13.05,0-22.44,8-22.44,25.23v46.28H357.43V73.86h25.92v11c7.31-8,18.27-12.35,31-12.35C436.42,72.47,453.12,85.34,453.12,113.88Z"/><path class="cls-1" d="M474.35,45.67c0-8.52,6.79-15.13,16.88-15.13s16.88,6.26,16.88,14.61c0,9.05-6.79,15.66-16.88,15.66S474.35,54.2,474.35,45.67Zm3.31,28.19H504.8v93.61H477.66Z"/><path class="cls-1" d="M588.15,72.47v25c-2.27-.17-4-.34-6.09-.34-15,0-24.89,8.17-24.89,26.1v44.19H530V73.86H556V86.21C562.57,77.17,573.7,72.47,588.15,72.47Z"/><path class="cls-1" d="M596.5,120.67c0-28.19,21.75-48.2,51.5-48.2s51.33,20,51.33,48.2S677.76,168.86,648,168.86,596.5,148.85,596.5,120.67Zm75.34,0c0-16.19-10.26-25.93-23.84-25.93s-24,9.74-24,25.93,10.44,25.92,24,25.92S671.84,136.85,671.84,120.67Z"/><path class="cls-1" d="M814,73.86v78c0,34.8-18.79,50.81-52.55,50.81-17.75,0-35-4.35-45.93-12.88l10.78-19.49c8,6.44,21.06,10.62,33.06,10.62,19.14,0,27.5-8.7,27.5-25.58v-4c-7.14,7.83-17.4,11.66-29.58,11.66-25.93,0-46.81-17.92-46.81-45.24s20.88-45.24,46.81-45.24c13.05,0,23.83,4.35,31,13.4v-12Zm-26.8,43.85c0-13.75-10.26-23-24.53-23S738,104,738,117.71s10.44,23,24.71,23S787.2,131.45,787.2,117.71Z"/><path class="cls-1" d="M833.49,106.57c0-36.71,28.19-63,66.12-63,21,0,38.62,7.65,50.11,21.57l-18.1,16.7C923.45,72.47,913.18,67.6,901,67.6c-22.79,0-39,16-39,39s16.19,39,39,39c12.18,0,22.45-4.87,30.62-14.44l18.1,16.7c-11.49,14.09-29.06,21.75-50.29,21.75C861.68,169.56,833.49,143.29,833.49,106.57Z"/><path class="cls-1" d="M958.42,106.57c0-36.19,28.19-63,66.64-63,38.28,0,66.64,26.62,66.64,63s-28.36,63-66.64,63C986.61,169.56,958.42,142.76,958.42,106.57Zm104.74,0c0-23.14-16.35-39-38.1-39S987,83.43,987,106.57s16.36,39,38.11,39S1063.16,129.71,1063.16,106.57Z"/></g><g id="Layer_2-2" data-name="Layer 2"><path class="cls-1" d="M276.36,125.54a44,44,0,0,0,32.44-14.23l.05-.06.08,0a.5.5,0,0,0,.16,0L361.3,49a1.54,1.54,0,0,0,0-.19l0-.25a118.62,118.62,0,0,0-59.14-3,113,113,0,0,0-14,3.78,117.55,117.55,0,0,0-32.12,16.73V120.6A43.86,43.86,0,0,0,276.36,125.54Z"/><path class="cls-1" d="M56.1,93.94l-.43.49-5.78,6.93h0L0,160.76a117.81,117.81,0,0,0,35.81,5.53A119.41,119.41,0,0,0,63,163.16a118.44,118.44,0,0,0,56.31-31.43H61.42V89.58a45.08,45.08,0,0,0-5.32,4.35Z"/><path class="cls-2" d="M187.74,154.19,105.9,85.5l-.06,0a44.33,44.33,0,0,0-19.23-4.34,44.89,44.89,0,0,0-20.14,4.79c-1.27.65-2.5,1.38-3.7,2.14-.33.2-.64.41-1,.62l-.39.28v42.77h62.91v62.91h68.83V157.43C191.26,156.41,189.43,155.32,187.74,154.19Z"/><path class="cls-2" d="M135,40.77a73.9,73.9,0,0,1,19.09,2.49,75.81,75.81,0,0,1,14.5,5.59l.21.11.62.34,83.72,70.24c1,.59,2,1.14,3,1.65V62.91h-62.9V0H124.33V41.56A73.7,73.7,0,0,1,135,40.77Z"/><path class="cls-3" d="M169.38,49.3l-.62-.34-.21-.11a75.81,75.81,0,0,0-14.5-5.59A73.87,73.87,0,0,0,82.33,62.91c-.51.52-1,1-1.53,1.56l-.16.21-4.35,5.18h0L61.42,87.59l-3,3.57c.12-.1.26-.19.39-.29.84-.67,1.71-1.3,2.6-1.91l.39-.28c.32-.21.63-.42,1-.62,1.2-.76,2.43-1.49,3.7-2.14a44.89,44.89,0,0,1,20.14-4.79,44.33,44.33,0,0,1,19.23,4.34l.06,0,81.84,68.69c1.69,1.13,3.52,2.22,5.42,3.24l1.46.78a73.81,73.81,0,0,0,87.17-15L282,143l.22.21,24-28.59c-.84.75-1.71,1.45-2.59,2.14l-.78.57c-.71.53-1.44,1-2.18,1.51l-.87.56c-1,.62-2,1.21-3.06,1.75a44.66,44.66,0,0,1-40.64,0c-1-.51-2-1.06-3-1.65Z"/></g></g></svg>